<svg width="20" height="12" viewBox="0 0 20 12" fill="none" xmlns="http://www.w3.org/2000/svg">
<path d="M16.6088 0.509098C17.2613 -0.165902 18.3413 -0.165901 18.9938 0.486599C19.6687 1.1616 19.6687 2.2191 18.9938 2.8716L11.1863 10.7241C10.8713 11.0391 10.4438 11.2191 9.99376 11.2191C9.54377 11.2191 9.11627 11.0391 8.80127 10.7241L0.993778 2.8716C0.656279 2.5566 0.498779 2.1291 0.498779 1.7016C0.498779 1.2516 0.656279 0.824101 0.993778 0.4866C1.66878 -0.1659 2.72628 -0.165901 3.37877 0.509099L9.99376 7.1466L16.6088 0.509098Z" fill="white"/>
<path d="M16.6088 0.509098C17.2613 -0.165902 18.3413 -0.165901 18.9938 0.486599C19.6687 1.1616 19.6687 2.2191 18.9938 2.8716L11.1863 10.7241C10.8713 11.0391 10.4438 11.2191 9.99376 11.2191C9.54377 11.2191 9.11627 11.0391 8.80127 10.7241L0.993778 2.8716C0.656279 2.5566 0.498779 2.1291 0.498779 1.7016C0.498779 1.2516 0.656279 0.824101 0.993778 0.4866C1.66878 -0.1659 2.72628 -0.165901 3.37877 0.509099L9.99376 7.1466L16.6088 0.509098Z" fill="white"/>
</svg>
