<svg width="50" height="50" viewBox="0 0 50 50" fill="none" xmlns="http://www.w3.org/2000/svg">
<path d="M25 0C38.8086 0 50 11.1943 50 25C50 38.8086 38.8086 50 25 50C11.1943 50 0 38.8086 0 25C0 11.1943 11.1943 0 25 0ZM36.1064 15C35.1523 15.0166 33.6914 15.5195 26.6602 18.4082C24.1963 19.4189 19.2725 21.5107 11.8916 24.6875C10.6924 25.1582 10.0654 25.6182 10.0068 26.0693C9.89648 26.9336 11.1572 27.2021 12.7441 27.71C14.0381 28.125 15.7764 28.6113 16.6797 28.6299C17.5 28.6475 18.415 28.3125 19.4268 27.6289C26.3232 23.0322 29.8857 20.71 30.1074 20.6592L30.6328 20.71L30.75 21.1523C30.626 21.6797 24.1455 27.498 23.7725 27.8809L23.5947 28.0596C22.2197 29.417 20.8311 30.3027 23.2285 31.8604C25.3916 33.2686 26.6514 34.168 28.8779 35.6084C30.3037 36.5312 31.4189 37.625 32.8887 37.4902C33.5674 37.4287 34.2656 36.7998 34.6201 34.9268C35.46 30.501 37.1084 20.9062 37.4893 16.9531C37.5234 16.6064 37.4814 16.1641 37.4482 15.9688C37.4141 15.7734 37.3428 15.498 37.0869 15.293C36.7822 15.0488 36.3135 14.9971 36.1064 15Z" fill="white"/>
</svg>
