<svg width="51" height="50" viewBox="0 0 51 50" fill="none" xmlns="http://www.w3.org/2000/svg">
<path d="M0.00731658 25.0309C-0.329777 11.8331 11.0229 -0.0168303 25.4379 1.79444e-05C39.5445 0.0168662 50.9714 11.1311 51 24.9635C51.0227 38.7735 39.6016 50 25.5122 50C11.3656 50 -0.0098238 38.8689 0.00731658 25.0309ZM12.3998 34.303C22.3069 40.0876 35.4707 33.4943 36.6535 22.1049C36.8477 20.2516 37.2419 18.6903 38.7617 17.5053C38.8531 17.4323 38.8188 17.2021 38.8474 16.9943L37.5047 16.6742C37.899 15.989 38.2817 15.3207 39.0188 14.0402C36.6134 15.5229 35.048 15.0399 33.2139 14.1244C29.8773 12.4565 25.9007 14.7142 25.2436 18.359C25.1179 19.0722 25.0723 19.7967 24.9808 20.5998C20.1587 20.3808 16.4678 18.1231 13.1654 14.9444C11.6399 17.5334 12.5997 19.6058 13.8452 21.6556L12.3827 22.2229C12.594 24.6041 13.9996 26.0755 16.1078 27.1987L14.5767 27.7098C15.2908 30.1022 17.3477 30.8042 19.2731 32.169C16.982 32.8822 14.6966 33.5955 12.3998 34.3087V34.303Z" fill="white"/>
</svg>
