<svg width="55" height="52" viewBox="0 0 55 52" fill="none" xmlns="http://www.w3.org/2000/svg">
<g filter="url(#filter0_d_174_4736)">
<path fill-rule="evenodd" clip-rule="evenodd" d="M32.2815 23.6523C32.0144 23.6726 30.6346 23.7563 27.5568 23.7563C25.1087 23.7563 23.3706 23.6817 22.7608 23.6523C13.3003 23.2293 6.23884 21.5555 6.23884 19.5515C6.23884 17.5475 13.3003 15.876 22.7608 15.4463V21.9853C23.3795 22.0305 25.151 22.1368 27.599 22.1368C30.5367 22.1368 32.0077 22.0124 32.2726 21.9876V15.4508C41.7131 15.8783 48.7589 17.552 48.7589 19.5515C48.7589 21.551 41.7153 23.2248 32.2726 23.65L32.2815 23.6523ZM32.2815 14.7745V8.92305H45.4563V0H9.58597V8.92305H22.7586V14.7722C12.0518 15.2721 4 17.4276 4 20.0107C4 22.5937 12.0518 24.747 22.7586 25.2492V44H32.2792V25.2424C42.9616 24.7425 51 22.5892 51 20.0084C51 17.4276 42.9682 15.2744 32.2792 14.7722L32.2815 14.7745Z" fill="#90FF00"/>
</g>
<defs>
<filter id="filter0_d_174_4736" x="0" y="0" width="55" height="52" filterUnits="userSpaceOnUse" color-interpolation-filters="sRGB">
<feFlood flood-opacity="0" result="BackgroundImageFix"/>
<feColorMatrix in="SourceAlpha" type="matrix" values="0 0 0 0 0 0 0 0 0 0 0 0 0 0 0 0 0 0 127 0" result="hardAlpha"/>
<feOffset dy="4"/>
<feGaussianBlur stdDeviation="2"/>
<feComposite in2="hardAlpha" operator="out"/>
<feColorMatrix type="matrix" values="0 0 0 0 0 0 0 0 0 0 0 0 0 0 0 0 0 0 0.25 0"/>
<feBlend mode="normal" in2="BackgroundImageFix" result="effect1_dropShadow_174_4736"/>
<feBlend mode="normal" in="SourceGraphic" in2="effect1_dropShadow_174_4736" result="shape"/>
</filter>
</defs>
</svg>
